<svg width="295" height="189" viewBox="0 0 295 189" fill="none" xmlns="http://www.w3.org/2000/svg">
<path d="M132.804 50.4178L103.198 94.4514C103.124 94.561 103.079 94.6867 103.069 94.8184C103.024 95.385 102.918 97.0322 103.086 98.144C103.24 99.1705 103.745 100.516 104.057 101.283C104.215 101.67 104.542 101.958 104.944 102.074C105.644 102.274 106.787 102.585 107.642 102.735C108.429 102.871 109.497 102.963 110.207 103.014C110.68 103.047 111.136 102.838 111.426 102.463C113.424 99.8807 115.37 97.2932 117.245 94.6184C118.815 92.3794 121.011 89.2509 123.514 85.6934C128.521 78.5768 134.753 69.7482 139.661 62.8869C139.838 62.6393 140.012 62.3954 140.184 62.1553C141.183 63.7048 142.313 65.4375 143.618 67.4071C148.276 74.4407 154.186 83.4878 158.934 90.7801C161.307 94.4255 163.389 97.6309 164.877 99.9249C165.993 101.645 167.097 103.35 167.097 103.35C168.155 104.983 169.351 106.532 170.5 108.104C170.727 108.414 171.065 108.624 171.446 108.666C172.77 108.809 175.97 108.991 177.539 107.655C181.147 105.112 179.516 101.159 179.516 101.159L148.116 50.6859C151.025 46.352 152.912 43.4863 157.206 37.9445C159.588 34.8703 162.167 31.5097 164.432 28.6906C165.564 27.2821 166.6 26.0302 167.479 25.0318C168.39 23.9973 169.033 23.3512 169.398 23.0613C170.081 22.5197 171.112 21.884 172.049 21.3498C172.205 21.2613 172.354 21.1776 172.496 21.0993L172.769 21.3996C172.771 21.4011 173.379 22.0689 174.151 22.9704C174.938 23.8904 175.841 24.9898 176.453 25.8612C177.08 26.754 177.822 28.0086 178.431 29.0881C178.73 29.618 178.987 30.0882 179.169 30.4254C179.26 30.5937 179.332 30.7284 179.381 30.8201L179.418 30.8904C179.493 31.0582 179.706 31.5386 179.961 32.1374C180.285 32.8973 180.654 33.7976 180.898 34.486C181.134 35.1502 181.406 36.0498 181.626 36.8144C181.735 37.1902 181.827 37.5216 181.893 37.7588C181.925 37.8771 181.951 37.9716 181.969 38.0359L181.988 38.1092L181.993 38.1273L181.995 38.1322L182.403 39.6548C182.438 39.7867 182.539 39.8911 182.669 39.9311L189.695 42.0846L193.404 40.7538L196.087 37.0273L196.238 32.8387L192.738 27.63L192.698 27.577L189.63 23.5094L184.333 12.8593L182.483 11.8499L182.317 11.8438L181.03 9.27824L178.218 5.35367L175.434 0.274442C175.334 0.0916789 175.136 -0.0151328 174.928 0.00174219L166.962 0.648903C166.758 0.665473 166.573 0.77566 166.462 0.94724L164.254 4.34332L164.21 5.55554L162.308 8.5247L158.457 12.757L155.255 16.6928L152.273 21.5007L140.676 38.7264L132.506 25.595L129.698 20.6812L126.639 16.6327L122.944 12.2651L121.379 10.0123L121.149 8.01571L116.913 4.13461C116.913 4.13461 113.39 3.39763 111.077 4.59691C108.95 5.69928 107.159 8.52199 107.159 8.52199L104.207 12.3432L102.828 14.8609H102.662L97.9881 19.6544L95.0999 26.2557L92.3107 30.7493L88.4329 35.0392C88.2574 35.2335 88.1602 35.486 88.1602 35.7478V39.5322L90.7074 43.3529L94.3664 44.8166L97.9881 44.4199L99.6862 42.8607L101.633 41.8489L102.22 40.0612C102.231 40.0262 102.9 38.8816 103.431 37.5395C103.7 36.8582 104.103 35.9685 104.455 35.2195C104.628 34.8514 104.782 34.5288 104.894 34.2985C104.95 34.1836 104.994 34.0919 105.025 34.0296L105.036 34.0065C105.152 33.8041 105.561 33.098 106.094 32.2274C106.741 31.1718 107.527 29.9479 108.184 29.0802C108.828 28.2295 109.772 27.1607 110.594 26.2687C110.997 25.8308 111.357 25.4499 111.616 25.1789C111.746 25.0436 111.849 24.936 111.92 24.863L112 24.7803L112.02 24.7601L112.025 24.7553L112.026 24.7544L112.31 24.464C112.448 24.5474 112.595 24.6363 112.747 24.7303C113.665 25.2979 114.672 25.9704 115.334 26.5362C115.689 26.8391 116.308 27.508 117.181 28.5747C118.024 29.6041 119.014 30.8924 120.094 32.3408C122.256 35.2397 124.713 38.691 126.983 41.8489C129.573 45.4537 131.24 47.9554 132.804 50.4178Z" fill="#883500"/>
<path d="M290.271 145.743C291.512 146.856 292.39 148.161 292.903 149.659C293.203 150.301 293.417 150.964 293.545 151.648C293.716 152.29 293.845 152.954 293.93 153.638C294.016 154.708 294.059 155.778 294.059 156.848C294.101 157.875 294.101 158.923 294.059 159.993C293.93 162.261 293.887 164.465 293.93 166.604C293.973 168.744 293.909 170.926 293.738 173.151L293.545 175.27C293.459 176.767 293.224 178.286 292.839 179.827C292.454 181.325 291.876 182.694 291.106 183.935C290.378 184.962 289.416 185.796 288.217 186.438C287.062 187.037 285.821 187.508 284.495 187.85C283.296 188.193 282.077 188.407 280.836 188.492C279.638 188.578 278.418 188.578 277.177 188.492C276.278 188.407 275.401 188.278 274.545 188.107C273.732 187.979 272.941 187.743 272.171 187.401C271.443 187.059 270.78 186.631 270.181 186.117C269.582 185.561 269.089 184.855 268.704 183.999C268.105 182.929 267.699 181.795 267.485 180.597C267.314 179.356 267.207 178.115 267.164 176.874C267.035 173.536 266.886 170.199 266.715 166.861C266.586 163.48 266.629 160.1 266.843 156.719C266.886 154.794 267.121 152.868 267.549 150.942C268.02 148.974 268.918 147.241 270.245 145.743C270.673 145.315 271.165 144.93 271.721 144.588C273.133 143.903 274.652 143.411 276.279 143.111C277.947 142.769 279.595 142.641 281.221 142.726C282.89 142.812 284.495 143.111 286.035 143.625C287.618 144.096 289.03 144.802 290.271 145.743ZM286.035 168.401V165.32L285.907 160.956C285.907 160.913 285.864 160.485 285.778 159.672C285.735 158.816 285.693 158.024 285.65 157.297C285.564 156.099 285.222 155.008 284.623 154.023C284.067 153.039 283.296 152.312 282.312 151.841C281.456 151.499 280.579 151.434 279.68 151.648C278.782 151.862 277.99 152.226 277.306 152.74C275.808 153.895 274.802 155.371 274.289 157.169C273.946 158.795 273.732 160.506 273.647 162.304C273.604 164.101 273.625 165.898 273.711 167.695C273.925 169.193 274.075 170.734 274.16 172.317C274.246 173.857 274.503 175.334 274.931 176.746C275.358 177.602 275.979 178.265 276.792 178.736C277.605 179.206 278.482 179.485 279.424 179.57C280.365 179.613 281.307 179.485 282.248 179.185C283.189 178.843 283.981 178.308 284.623 177.58C285.008 177.067 285.286 176.66 285.457 176.361C285.629 176.018 285.735 175.655 285.778 175.27C285.821 174.884 285.821 174.435 285.778 173.922C285.778 173.365 285.821 172.638 285.907 171.739C285.949 170.883 285.971 170.135 285.971 169.493C286.014 168.851 286.035 168.487 286.035 168.401Z" fill="#883500"/>
<path d="M256.46 142.534C257.487 142.577 258.963 142.577 260.888 142.534H262.429V142.791C262.429 146.471 262.365 150.172 262.236 153.895C262.151 157.618 262.065 161.362 261.98 165.128C261.937 168.851 261.937 172.574 261.98 176.297C262.022 180.019 262.151 183.7 262.365 187.337C262.022 187.679 261.295 187.872 260.182 187.915C259.113 188 257.936 188.022 256.652 187.979C255.411 187.936 254.213 187.872 253.058 187.786C251.902 187.743 251.111 187.786 250.683 187.915C250.982 184.063 251.111 180.191 251.068 176.297C251.025 172.402 250.939 168.551 250.811 164.743C250.725 160.891 250.661 157.104 250.618 153.382C250.618 149.616 250.811 145.936 251.196 142.341V142.213C251.41 142.17 251.817 142.191 252.416 142.277C253.058 142.32 253.528 142.341 253.828 142.341C254.598 142.384 255.475 142.448 256.46 142.534Z" fill="#883500"/>
<path d="M239.359 144.716C240.642 145.7 241.669 146.813 242.44 148.054C243.381 149.509 244.151 151.028 244.75 152.611C245.392 154.152 245.906 155.778 246.291 157.49C246.505 158.174 246.633 158.859 246.676 159.544C246.761 160.185 246.826 160.849 246.868 161.533C246.783 163.545 246.697 165.577 246.612 167.631C246.569 169.642 246.355 171.632 245.97 173.601C245.97 173.643 245.948 173.665 245.906 173.665C245.906 173.665 245.906 173.686 245.906 173.729C245.05 176.254 243.873 178.65 242.375 180.918C240.92 183.186 239.38 185.326 237.754 187.337C234.93 187.422 232.084 187.487 229.217 187.529C226.35 187.529 223.568 187.529 220.872 187.529C220.872 187.529 220.851 187.551 220.808 187.594C220.338 184.213 220.038 180.725 219.91 177.131C219.781 173.494 219.717 169.814 219.717 166.091C219.717 162.368 219.738 158.624 219.781 154.858C219.867 151.049 219.867 147.284 219.781 143.561C219.824 143.518 219.845 143.475 219.845 143.432C219.888 143.39 219.931 143.347 219.974 143.304C221.172 143.005 222.413 142.812 223.697 142.726C225.023 142.598 226.35 142.555 227.676 142.598C229.003 142.598 230.308 142.619 231.592 142.662C232.918 142.705 234.202 142.705 235.443 142.662C236.812 143.005 238.118 143.689 239.359 144.716ZM235.636 172.509C235.978 172.124 236.278 171.739 236.534 171.354C237.262 170.242 237.775 169.022 238.075 167.695C238.417 166.369 238.417 164.914 238.075 163.331C237.946 162.689 237.797 162.025 237.625 161.341C237.454 160.613 237.198 159.929 236.855 159.287C236.556 158.645 236.171 158.089 235.7 157.618C235.229 157.104 234.63 156.719 233.903 156.463C233.175 156.377 232.383 156.334 231.528 156.334C230.672 156.291 229.859 156.356 229.088 156.527H228.896V156.783C228.981 157.939 229.024 159.18 229.024 160.506C229.024 161.833 229.003 163.224 228.96 164.679C228.917 166.091 228.896 167.546 228.896 169.043C228.896 170.498 228.939 171.953 229.024 173.408C229.495 173.836 230.137 174.029 230.95 173.986C231.806 173.943 232.619 173.879 233.389 173.793C233.603 173.836 233.796 173.815 233.967 173.729C234.138 173.601 234.33 173.494 234.544 173.408C234.972 173.151 235.336 172.852 235.636 172.509Z" fill="#883500"/>
<path d="M212.921 144.138C213.734 144.224 214.397 144.417 214.911 144.716C215.167 150.194 215.253 155.735 215.167 161.341C215.082 166.904 214.739 172.445 214.14 177.965C213.798 180.79 212.728 183.186 210.931 185.154C209.134 187.123 206.694 188.257 203.613 188.556C201.816 188.728 199.955 188.642 198.029 188.3C196.104 188 194.349 187.444 192.766 186.631C191.225 185.775 189.92 184.662 188.85 183.293C187.823 181.881 187.267 180.191 187.181 178.222C187.181 172.574 187.246 166.882 187.374 161.148C187.502 155.414 187.524 149.723 187.438 144.074L187.374 144.01H187.438C188.08 144.01 188.786 143.989 189.556 143.946C190.369 143.903 191.182 143.882 191.995 143.882C192.809 143.882 193.6 143.925 194.37 144.01C195.141 144.053 195.847 144.16 196.489 144.331V144.395C196.018 154.751 196.21 165.256 197.066 175.911C197.366 176.938 197.901 177.687 198.671 178.158C199.484 178.629 200.319 178.843 201.174 178.8C202.03 178.757 202.822 178.458 203.549 177.901C204.277 177.345 204.747 176.575 204.961 175.59C205.175 170.455 205.282 165.235 205.282 159.929C205.325 154.622 205.411 149.487 205.539 144.524C206.095 144.481 206.801 144.417 207.657 144.331C208.556 144.203 209.455 144.117 210.353 144.074C211.252 144.032 212.108 144.053 212.921 144.138Z" fill="#883500"/>
<path d="M170.47 142.405C175.134 142.363 179.67 142.577 184.077 143.047C184.163 144.459 184.184 146.086 184.142 147.926C184.142 149.766 184.035 151.456 183.821 152.996C183.008 152.825 182.002 152.761 180.804 152.804C179.606 152.847 178.001 152.911 175.99 152.996H175.797C175.797 153.039 175.776 153.082 175.733 153.125C175.733 153.125 175.733 153.146 175.733 153.189C175.69 153.403 175.647 153.745 175.605 154.216C175.605 154.644 175.605 155.35 175.605 156.334C175.605 157.276 175.605 158.538 175.605 160.121C175.647 161.662 175.69 163.673 175.733 166.155C175.776 168.594 175.819 171.547 175.861 175.013C175.904 178.436 175.968 182.48 176.054 187.144V187.273C175.284 187.401 174.428 187.487 173.486 187.529C172.588 187.529 171.668 187.529 170.726 187.529C169.828 187.529 168.929 187.529 168.03 187.529C167.132 187.529 166.297 187.594 165.527 187.722C165.484 187.551 165.484 186.781 165.527 185.411C165.57 184.042 165.591 182.009 165.591 179.313C165.634 176.575 165.613 173.087 165.527 168.851C165.484 164.614 165.335 159.501 165.078 153.51L165.014 153.446C164.5 153.189 163.858 153.039 163.088 152.996C162.318 152.911 161.547 152.868 160.777 152.868C160.007 152.825 159.301 152.804 158.659 152.804C158.017 152.804 157.568 152.761 157.311 152.675C157.225 152.504 157.14 152.076 157.054 151.392C157.012 150.707 156.969 149.894 156.926 148.953C156.926 147.968 156.926 146.92 156.926 145.807C156.926 144.695 156.969 143.625 157.054 142.598C157.054 142.555 157.033 142.534 156.99 142.534C156.99 142.534 156.99 142.512 156.99 142.47C161.355 142.427 165.848 142.405 170.47 142.405Z" fill="#883500"/>
<path d="M154.143 149.274C155.256 151.37 155.513 154.023 154.914 157.233H154.849C153.352 157.49 151.747 157.661 150.035 157.746C148.324 157.789 146.719 157.597 145.221 157.169C145.478 156.013 145.243 155.05 144.515 154.28C143.788 153.51 142.91 153.018 141.883 152.804C140.856 152.59 139.851 152.697 138.867 153.125C137.925 153.553 137.369 154.366 137.198 155.564C137.112 155.863 137.069 156.163 137.069 156.463C137.112 156.719 137.155 156.997 137.198 157.297C137.54 158.324 138.096 159.009 138.867 159.351C139.637 159.693 140.471 159.929 141.37 160.057C143.638 160.314 145.735 161.041 147.66 162.239C149.629 163.438 151.233 164.957 152.474 166.797C153.245 167.781 153.822 168.851 154.207 170.006C154.593 171.119 154.807 172.274 154.849 173.472C154.935 174.67 154.849 175.89 154.593 177.131C154.379 178.329 154.015 179.485 153.501 180.597C152.988 181.924 152.303 183.058 151.447 183.999C150.592 184.94 149.607 185.711 148.495 186.31C147.425 186.909 146.248 187.358 144.964 187.658C143.723 187.915 142.44 188.022 141.113 187.979C139.23 187.936 137.348 187.615 135.465 187.016C133.625 186.374 131.977 185.497 130.522 184.384C129.067 183.272 127.912 181.924 127.056 180.34C126.2 178.714 125.837 176.874 125.965 174.82V174.435C127.463 174.221 129.11 174.178 130.907 174.307C132.705 174.392 134.331 174.414 135.786 174.371C135.871 175.74 136.406 176.767 137.39 177.452C138.417 178.137 139.487 178.479 140.6 178.479C141.755 178.436 142.739 178.051 143.552 177.324C144.408 176.596 144.708 175.484 144.451 173.986C144.323 172.959 143.937 172.146 143.296 171.547C142.654 170.905 141.883 170.391 140.985 170.006C140.129 169.621 139.188 169.343 138.161 169.172C137.134 168.958 136.171 168.765 135.272 168.594C134.416 168.423 133.625 168.145 132.897 167.76C132.17 167.374 131.506 166.925 130.907 166.412C128.939 164.529 127.655 162.453 127.056 160.185C126.5 157.917 126.478 155.714 126.992 153.574C127.505 151.435 128.468 149.487 129.88 147.733C131.335 145.979 133.09 144.673 135.144 143.818C136.171 143.39 137.305 143.111 138.546 142.983C139.787 142.812 141.028 142.769 142.269 142.855C143.552 142.898 144.793 143.069 145.991 143.368C147.232 143.668 148.366 144.053 149.393 144.524C151.447 145.593 153.031 147.177 154.143 149.274Z" fill="#883500"/>
<path d="M99.1359 142.405C103.8 142.363 108.336 142.577 112.744 143.047C112.829 144.459 112.851 146.086 112.808 147.926C112.808 149.766 112.701 151.456 112.487 152.996C111.674 152.825 110.668 152.761 109.47 152.804C108.272 152.847 106.667 152.911 104.656 152.996H104.464C104.464 153.039 104.442 153.082 104.399 153.125C104.399 153.125 104.399 153.146 104.399 153.189C104.357 153.403 104.314 153.745 104.271 154.216C104.271 154.644 104.271 155.35 104.271 156.334C104.271 157.276 104.271 158.538 104.271 160.121C104.314 161.662 104.357 163.673 104.399 166.155C104.442 168.594 104.485 171.547 104.528 175.013C104.571 178.436 104.635 182.48 104.72 187.144V187.273C103.95 187.401 103.094 187.487 102.153 187.529C101.254 187.529 100.334 187.529 99.3927 187.529C98.4941 187.529 97.5954 187.529 96.6968 187.529C95.7982 187.529 94.9637 187.594 94.1935 187.722C94.1507 187.551 94.1507 186.781 94.1935 185.411C94.2363 184.042 94.2577 182.009 94.2577 179.313C94.3005 176.575 94.2791 173.087 94.1935 168.851C94.1507 164.614 94.0009 159.501 93.7442 153.51L93.68 153.446C93.1665 153.189 92.5246 153.039 91.7543 152.996C90.9841 152.911 90.2138 152.868 89.4436 152.868C88.6733 152.825 87.9673 152.804 87.3254 152.804C86.6835 152.804 86.2342 152.761 85.9775 152.675C85.8919 152.504 85.8063 152.076 85.7207 151.392C85.6779 150.707 85.6351 149.894 85.5923 148.953C85.5923 147.968 85.5923 146.92 85.5923 145.807C85.5923 144.695 85.6351 143.625 85.7207 142.598C85.7207 142.555 85.6993 142.534 85.6565 142.534C85.6565 142.534 85.6565 142.512 85.6565 142.47C90.0213 142.427 94.5144 142.405 99.1359 142.405Z" fill="#883500"/>
<path d="M89.5243 180.661C89.5243 181.089 89.5457 181.474 89.5885 181.817C89.6741 183.357 89.7169 184.534 89.7169 185.347C89.7169 186.117 89.6527 186.695 89.5243 187.08C89.4387 187.422 89.2676 187.615 89.0108 187.658C88.7541 187.658 88.3903 187.658 87.9196 187.658C87.4489 187.615 86.8284 187.615 86.0582 187.658C85.3307 187.701 84.0684 187.743 82.2711 187.786C80.5166 187.829 78.0775 187.85 74.9537 187.85C71.8727 187.85 67.7433 187.808 62.5655 187.722V186.567C62.6939 183.357 62.8008 180.469 62.8864 177.901C62.972 175.291 63.0148 172.873 63.0148 170.648C63.0576 168.38 63.079 166.198 63.079 164.101C63.079 162.004 63.0576 159.864 63.0148 157.682C62.972 155.5 62.9292 153.189 62.8864 150.75C62.8436 148.268 62.8008 145.529 62.758 142.534C63.186 142.363 63.8492 142.234 64.7479 142.149C65.6465 142.02 66.6093 141.956 67.6363 141.956C68.6633 141.956 69.6689 142.02 70.6531 142.149C71.6373 142.277 72.429 142.47 73.0281 142.726C72.9425 145.508 72.8997 148.375 72.8997 151.328C72.9425 154.237 72.9853 157.169 73.0281 160.121C73.0709 163.074 73.0923 166.027 73.0923 168.979C73.1351 171.889 73.1351 174.713 73.0923 177.452V177.516C73.3918 177.431 73.9481 177.409 74.7611 177.452C75.617 177.452 76.6012 177.473 77.7138 177.516C78.8264 177.559 80.0031 177.623 81.2441 177.709C82.5279 177.751 83.726 177.794 84.8386 177.837C85.994 177.88 86.9996 177.923 87.8554 177.965C88.7541 177.965 89.3746 177.944 89.7169 177.901C89.7169 178.372 89.6955 178.843 89.6527 179.313C89.6099 179.741 89.5671 180.191 89.5243 180.661Z" fill="#883500"/>
<path d="M50.598 178.864C53.3367 178.992 56.1609 179.014 59.0708 178.928V179.057C59.1563 180.426 59.1777 181.859 59.1349 183.357C59.0921 184.812 58.8996 186.181 58.5573 187.465C54.1925 187.422 49.7421 187.487 45.2062 187.658C40.7131 187.786 36.3911 187.679 32.2403 187.337C32.2403 183.614 32.1975 179.934 32.1119 176.297C32.0263 172.616 31.9621 168.958 31.9194 165.32C31.8766 161.683 31.8766 158.046 31.9194 154.409C31.9621 150.771 32.0905 147.113 32.3045 143.432C33.9734 143.347 35.7706 143.283 37.6962 143.24C39.6647 143.154 41.6331 143.09 43.6015 143.047C45.5699 143.005 47.4742 142.962 49.3142 142.919C51.1543 142.876 52.7804 142.855 54.1925 142.855C55.6046 142.855 56.7386 142.876 57.5944 142.919C58.4503 142.962 58.8782 143.005 58.8782 143.047C59.0922 144.545 59.1349 146.064 59.0066 147.605C58.921 149.145 58.8782 150.664 58.8782 152.162V152.226C57.5089 152.526 56.1181 152.718 54.706 152.804C53.3367 152.847 51.9459 152.868 50.5338 152.868C49.1217 152.825 47.7095 152.804 46.2974 152.804C44.8853 152.804 43.4731 152.868 42.061 152.996H41.8685L41.8043 153.061C41.8471 154.302 41.7829 155.585 41.6117 156.912C41.4833 158.196 41.5689 159.415 41.8685 160.571L41.9326 160.635C43.2164 160.72 44.5215 160.763 45.8481 160.763C47.1746 160.763 48.5012 160.785 49.8277 160.827V160.891C50.0417 162.346 50.1059 163.801 50.0203 165.256C49.9347 166.711 49.9133 168.23 49.9561 169.814C49.3142 169.985 48.5868 170.092 47.7737 170.135C46.9607 170.135 46.169 170.135 45.3988 170.135C44.6713 170.135 44.008 170.156 43.409 170.199C42.8099 170.241 42.4033 170.348 42.1894 170.52C41.9754 171.761 41.8898 173.151 41.9326 174.692C42.0182 176.232 42.1038 177.516 42.1894 178.543L42.2536 178.607C45.0778 178.607 47.8593 178.693 50.598 178.864Z" fill="#883500"/>
<path d="M11.8105 152.162C11.2115 152.29 10.7407 152.526 10.3984 152.868C10.3128 152.954 10.2272 153.103 10.1417 153.317C10.0989 153.489 10.0561 153.617 10.0133 153.702C9.9277 153.831 9.84212 154.58 9.75653 155.949C9.71374 157.318 9.67095 158.944 9.62816 160.827C9.58537 162.71 9.56397 164.679 9.56397 166.733C9.56397 168.744 9.62816 170.498 9.75653 171.996C9.88491 173.237 10.2058 174.456 10.7193 175.655C11.2756 176.81 12.1743 177.559 13.4152 177.901C14.3567 177.987 15.2339 177.858 16.0469 177.516C16.9028 177.131 17.5446 176.511 17.9726 175.655C18.4433 174.67 18.6358 173.643 18.5503 172.574C18.5075 171.461 18.593 170.37 18.807 169.3C19.4061 169.386 20.0694 169.407 20.7968 169.364C21.5671 169.321 22.3373 169.3 23.1076 169.3C23.8778 169.3 24.6267 169.321 25.3542 169.364C26.1244 169.407 26.8091 169.514 27.4082 169.685C28.1356 171.91 28.3282 174.136 27.9858 176.361C27.6435 178.543 26.8947 180.512 25.7393 182.266C24.5839 184.02 23.0648 185.475 21.1819 186.631C19.3419 187.743 17.2451 188.321 14.8916 188.364C13.351 188.578 11.7677 188.578 10.1417 188.364C8.51557 188.193 6.99646 187.786 5.58433 187.144C4.1722 186.46 2.97403 185.518 1.98982 184.32C1.0484 183.122 0.492106 181.624 0.320939 179.827C0.235355 178.286 0.171167 176.682 0.128375 175.013C0.0855835 173.344 0.0427918 171.482 0 169.428C0 167.332 0 164.978 0 162.368C0.0427918 159.715 0.0855835 156.655 0.128375 153.189C0.0427917 152.462 0.0641876 151.734 0.192563 151.007C0.36373 150.236 0.57769 149.53 0.83444 148.888C1.21957 147.776 1.69028 146.749 2.24657 145.807C2.84566 144.866 3.55172 144.032 4.36477 143.304C4.83548 142.962 5.34898 142.684 5.90527 142.47C6.46156 142.213 7.03925 141.999 7.63834 141.828C9.60676 141.186 11.5538 140.929 13.4794 141.057C15.4051 141.186 17.2023 141.635 18.8712 142.405C20.5829 143.133 22.1234 144.117 23.4927 145.358C24.862 146.599 25.9532 148.033 26.7663 149.659C27.5793 151.242 28.0714 152.975 28.2426 154.858C28.4138 156.741 28.157 158.666 27.4723 160.635C25.8891 160.977 24.3271 161.105 22.7866 161.02C21.2889 160.891 19.727 160.678 18.1009 160.378C17.9726 159.565 17.887 158.645 17.8442 157.618C17.8442 156.591 17.7372 155.649 17.5233 154.794C17.3093 153.895 16.9028 153.168 16.3037 152.611C15.7474 152.055 14.8488 151.798 13.6078 151.841C13.0515 151.927 12.4524 152.034 11.8105 152.162Z" fill="#883500"/>
</svg>
